<?xml version="1.0" encoding="utf-8"?>
<!-- Generator: Adobe Illustrator 22.0.1, SVG Export Plug-In . SVG Version: 6.00 Build 0)  -->
<svg version="1.1" id="Layer_1" xmlns="http://www.w3.org/2000/svg" xmlns:xlink="http://www.w3.org/1999/xlink" x="0px" y="0px"
	 viewBox="0 0 100 100" style="enable-background:new 0 0 100 100;" xml:space="preserve">
<style type="text/css">
	.st0{fill:#D71E00;}
	.st1{fill:#C21A00;}
	.st2{fill:#CDCDCD;}
	.st3{fill:#FFFFFF;}
	.st4{fill:#EAEAEA;}
</style>
<title>producticons_1017_RGB_Web Server final color</title>
<g id="Layer_1_1_">
	<circle class="st0" cx="50" cy="50" r="50"/>
	<path class="st1" d="M85.4,14.6c19.5,19.5,19.5,51.2,0,70.7s-51.2,19.5-70.7,0L85.4,14.6z"/>
	<polygon class="st2" points="81.5,27.9 81.5,27.9 81.5,27.9 	"/>
	<rect x="15.1" y="47" class="st3" width="71.5" height="20.2"/>
	<path class="st4" d="M15.2,39.7l0-6.8l9.1-0.1l0,6.8L15.2,39.7z M30.3,39.6l0-6.8l9.1-0.1l0,6.8L30.3,39.6z M45.4,39.5l0-6.8
		l9.1-0.1l0,6.8L45.4,39.5z M60.5,39.4l0-6.8l9.1-0.1l0,6.8L60.5,39.4z M75.6,39.3l0-6.8l9.1-0.1l0,6.8L75.6,39.3z"/>
</g>
<path class="st0" d="M19.4,47.4"/>
</svg>
