<svg id="icon" xmlns="http://www.w3.org/2000/svg" viewBox="0 0 100 100"><defs><style>.cls-1{fill:#d71e00;}.cls-2{fill:#c21a00;}.cls-3{fill:#d5d5d5;}.cls-4{fill:#ededed;}.cls-5{fill:#fff;}</style></defs><title>plugin_icons_0918_RGB_Java_color</title><circle class="cls-1" cx="50" cy="50" r="50"/><path class="cls-2" d="M85.36,14.64A50,50,0,0,1,14.64,85.36Z"/><path class="cls-3" d="M30.38,68.79a10.48,10.48,0,0,1,5.1,3.95,1.34,1.34,0,0,0,1.11.62h25.2a1.34,1.34,0,0,0,1.11-.62A10.39,10.39,0,0,1,68,68.79Z"/><path class="cls-4" d="M76,35.68a10.7,10.7,0,0,0-4.51,1c0-1.28.09-2.52.1-3.72a1.35,1.35,0,0,0-1.36-1.37H68.65L36.09,64.12H64.48a21.38,21.38,0,0,0,1.92-3C75,59.64,84.85,53.63,84.85,44.89,84.85,39.64,81.06,35.68,76,35.68ZM68.65,55.57A65.88,65.88,0,0,0,71.07,43a6.54,6.54,0,0,1,5-2.42c2.74,0,4,2.19,4,4.36C80,49.76,74.37,53.76,68.65,55.57Z"/><path class="cls-5" d="M64.48,64.12H36.09L68.65,31.56H28.1a1.36,1.36,0,0,0-1.36,1.37c.12,10.24,1.59,24,7.14,31.19H21.22a2.3,2.3,0,0,0-2.31,2.31v0a2.31,2.31,0,0,0,2.31,2.32H77.16a2.32,2.32,0,0,0,2.31-2.32v0a2.31,2.31,0,0,0-2.31-2.31H64.49"/></svg>