<svg id="a5e7b1bc-0e34-411e-8241-d963c1257d29" data-name="Layer 1" xmlns="http://www.w3.org/2000/svg" width="100" height="100" viewBox="0 0 100 100"><defs><style>.acf7277c-9f3a-493b-9cd5-af37349511a7{fill:#e03400;}.ad9442dc-b5dd-4708-a800-0ed9dabb1713{fill:#ce2e00;}.a940dcde-a3be-4bc0-aa51-d02505056f04{fill:#ededed;}.b93b0f73-f658-42ad-8b54-7aae75f5ee1d{fill:#fff;}</style></defs><circle class="acf7277c-9f3a-493b-9cd5-af37349511a7" cx="50" cy="50" r="50"/><path class="ad9442dc-b5dd-4708-a800-0ed9dabb1713" d="M85.35534,14.64466A50,50,0,0,1,14.64466,85.35534Z"/><path class="a940dcde-a3be-4bc0-aa51-d02505056f04" d="M51.79718,48.20287l-16.33,21.24433a22.85787,22.85787,0,0,0,6.59228,3.36315l.01117.00715c.018.00573.03681.00946.05481.01513.48133.15186.97064.285,1.46515.4054.11664.02838.234.0545.35126.08111.46783.10608.93982.20069,1.418.27765.04413.00708.0874.01667.13165.0235.51239.07941,1.03174.13666,1.55469.18152.12561.01074.25153.02.37775.02869.53076.03674,1.06457.06219,1.60467.06219h.00018A22.8194,22.8194,0,0,0,62.7431,69.339q.88248-.66,1.69757-1.40088a22.926,22.926,0,0,0,6.47906-10.15076q.33491-1.07657.56482-2.19665a23.02233,23.02233,0,0,0,.4657-4.61945V28.04973H49.02874a23.02223,23.02223,0,0,0-4.61944.4657q-1.11906.229-2.19666.56482a22.92584,22.92584,0,0,0-10.15075,6.47907q-.73993.81408-1.40088,1.69757A22.81939,22.81939,0,0,0,26.1073,50.97118v.00012c0,.70893.037,1.40906.1,2.10157.00458.05053.00665.10156.01154.152.06451.66047.16125,1.31116.28064,1.954.0144.07764.02649.15583.04168.23322.12232.62286.27277,1.23529.4444,1.83893.02564.09027.05.18085.07684.27063q.2645.888.59876,1.744c.03583.09228.07178.18414.10876.27587q.3426.84879.74921,1.66291c.04291.08581.0871.17059.131.25586q.42.81426.8999,1.59045c.04535.073.09272.14417.13886.21661.27478.4314.5705.84766.872,1.25922L51.79718,48.20281"/><circle class="b93b0f73-f658-42ad-8b54-7aae75f5ee1d" cx="29.63387" cy="70.36615" r="3.58412"/><path class="b93b0f73-f658-42ad-8b54-7aae75f5ee1d" d="M49.02868,28.0498a23.02215,23.02215,0,0,0-4.61944.46569q-1.11906.229-2.19666.56482a22.92617,22.92617,0,0,0-10.15076,6.47907q-.73992.81408-1.40087,1.69757a22.8194,22.8194,0,0,0-4.55372,13.71429v.00013c0,.70892.037,1.40905.1,2.10156.00458.05054.00665.10156.01154.152.06451.66046.16125,1.31115.28064,1.954.0144.07763.02648.15582.04168.23321.12232.62287.27277,1.23529.4444,1.83893.02563.09027.05005.18085.07684.27063q.2645.888.59876,1.744c.03583.09228.07177.18414.10876.27588q.3426.84878.74921,1.6629c.04291.08581.0871.17059.131.25586q.42.81426.8999,1.59045c.04535.073.09272.14417.13886.21662.27478.43139.57049.84765.872,1.25921L51.79718,48.20281l20.153-20.153Z"/></svg>